<?xml version="1.0" encoding="UTF-8"?>
<svg id="Layer_1" data-name="Layer 1" xmlns="http://www.w3.org/2000/svg" viewBox="0 0 595.28 100">
  <defs>
    <style>
      .cls-1 {
        letter-spacing: 0em;
      }

      .cls-2, .cls-3, .cls-4 {
        fill: #231f20;
      }

      .cls-3 {
        font-size: 9.1px;
      }

      .cls-3, .cls-4 {
        font-family: HelveticaNeueLTStd-Md, 'Helvetica Neue LT Std';
        font-weight: 500;
      }

      .cls-5 {
        letter-spacing: 0em;
      }

      .cls-4 {
        font-size: 8.8px;
      }

      .cls-6 {
        fill: none;
        stroke: #231f20;
        stroke-width: .5px;
      }

      .cls-7 {
        letter-spacing: -.04em;
      }

      .cls-8 {
        letter-spacing: -.02em;
      }

      .cls-9 {
        letter-spacing: .43em;
      }

      .cls-10 {
        letter-spacing: -.02em;
      }
    </style>
  </defs>
  <line class="cls-6" x1="43.57" y1="40.99" x2="547.57" y2="40.99"/>
  <text class="cls-4" transform="translate(43.57 49.33)"><tspan x="0" y="0">K</tspan><tspan class="cls-8" x="6.03" y="0">r</tspan><tspan x="8.98" y="0">owne</tspan><tspan class="cls-9" x="30.98" y="0"> </tspan><tspan x="37.18" y="0">•</tspan><tspan class="cls-9" x="41.58" y="0"> </tspan><tspan x="47.77" y="0">100 Haul Rd. </tspan><tspan class="cls-7" x="102.23" y="0">W</tspan><tspan x="110.23" y="0" xml:space="preserve">ayne, NJ 07470  •</tspan><tspan class="cls-9" x="181.81" y="0"> </tspan><tspan class="cls-5" x="188" y="0">P: (800) 631-0442</tspan><tspan class="cls-1" x="258.45" y="0"> </tspan><tspan x="260.88" y="0" xml:space="preserve"> •</tspan><tspan class="cls-9" x="267.73" y="0"> </tspan><tspan x="273.92" y="0" xml:space="preserve">F: (973) 872-1129  • support@k</tspan><tspan class="cls-10" x="398.85" y="0">r</tspan><tspan x="401.8" y="0" xml:space="preserve">owne.com •  k</tspan><tspan class="cls-8" x="460.48" y="0">r</tspan><tspan x="463.43" y="0">owne.com</tspan></text>
  <text class="cls-3" transform="translate(549.18 49.33)"><tspan x="0" y="0"> </tspan></text>
  <path class="cls-2" d="M44.03,53.47h1.47c1.32,0,2.06.66,2.06,2.04s-.63,2.24-2.06,2.24h-1.47v-4.28ZM44.6,57.27h.95c.39,0,1.44-.11,1.44-1.69,0-1.02-.38-1.64-1.43-1.64h-.96v3.32ZM50.74,57.75h-.48v-.49h-.01c-.22.38-.56.56-1.01.56-.82,0-1.07-.47-1.07-1.13v-2.04h.51v2.1c0,.38.24.62.63.62.62,0,.92-.41.92-.97v-1.75h.51v3.1ZM54.15,56.77c-.14.68-.63,1.06-1.33,1.06-.99,0-1.46-.68-1.49-1.63,0-.93.61-1.61,1.46-1.61,1.1,0,1.43,1.03,1.4,1.78h-2.32c-.02.54.29,1.02.97,1.02.42,0,.71-.2.8-.61h.5ZM53.66,55.9c-.02-.49-.39-.88-.89-.88-.53,0-.85.4-.89.88h1.78ZM57.11,54.65h.62v.45h-.62v1.92c0,.23.07.28.38.28h.23v.45h-.39c-.53,0-.74-.11-.74-.68v-1.97h-.53v-.45h.53v-.93h.51v.93ZM59.63,54.58c.98,0,1.51.71,1.51,1.63s-.52,1.62-1.51,1.62-1.51-.71-1.51-1.62.52-1.63,1.51-1.63ZM59.63,57.37c.53,0,.97-.42.97-1.17s-.43-1.18-.97-1.18-.97.42-.97,1.18.43,1.17.97,1.17ZM64.74,54.58c.98,0,1.51.71,1.51,1.63s-.52,1.62-1.51,1.62-1.51-.71-1.51-1.62.52-1.63,1.51-1.63ZM64.74,57.37c.53,0,.97-.42.97-1.17s-.43-1.18-.97-1.18-.97.42-.97,1.18.43,1.17.97,1.17ZM69.41,57.75h-.48v-.49h-.01c-.22.38-.56.56-1.01.56-.82,0-1.07-.47-1.07-1.13v-2.04h.51v2.1c0,.38.24.62.63.62.62,0,.92-.41.92-.97v-1.75h.51v3.1ZM70.16,54.65h.48v.65h.01c.25-.5.59-.74,1.14-.73v.54c-.82,0-1.12.47-1.12,1.25v1.38h-.51v-3.1ZM75.95,55.65c-.08-.39-.35-.62-.77-.62-.74,0-.97.58-.97,1.21,0,.57.26,1.13.91,1.13.49,0,.79-.29.85-.76h.52c-.11.76-.59,1.21-1.37,1.21-.95,0-1.45-.66-1.45-1.58s.48-1.66,1.46-1.66c.7,0,1.27.33,1.34,1.07h-.53ZM78.41,54.58c.98,0,1.51.71,1.51,1.63s-.52,1.62-1.51,1.62-1.51-.71-1.51-1.62.52-1.63,1.51-1.63ZM78.41,57.37c.53,0,.97-.42.97-1.17s-.43-1.18-.97-1.18-.97.42-.97,1.18.43,1.17.97,1.17ZM80.51,54.65h.48v.46h.01c.23-.35.58-.53,1-.53.38,0,.73.15.85.53.21-.33.58-.53.97-.53.62,0,1.03.26,1.03.9v2.27h-.51v-2.03c0-.38-.1-.69-.6-.69s-.81.31-.81.79v1.93h-.51v-2.03c0-.4-.13-.69-.58-.69-.61,0-.83.56-.83.79v1.93h-.51v-3.1ZM85.63,54.65h.48v.46h.01c.23-.35.58-.53,1-.53.38,0,.73.15.85.53.21-.33.58-.53.97-.53.62,0,1.03.26,1.03.9v2.27h-.51v-2.03c0-.38-.1-.69-.6-.69s-.81.31-.81.79v1.93h-.51v-2.03c0-.4-.13-.69-.58-.69-.61,0-.83.56-.83.79v1.93h-.51v-3.1ZM91.29,54.09h-.51v-.62h.51v.62ZM90.78,54.65h.51v3.1h-.51v-3.1ZM92.79,54.65h.62v.45h-.62v1.92c0,.23.07.28.38.28h.23v.45h-.39c-.53,0-.74-.11-.74-.68v-1.97h-.53v-.45h.53v-.93h.51v.93ZM93.97,54.65h.48v.46h.01c.23-.35.58-.53,1-.53.38,0,.73.15.85.53.21-.33.58-.53.97-.53.62,0,1.03.26,1.03.9v2.27h-.51v-2.03c0-.38-.1-.69-.6-.69s-.81.31-.81.79v1.93h-.51v-2.03c0-.4-.13-.69-.58-.69-.61,0-.83.56-.83.79v1.93h-.51v-3.1ZM101.73,56.77c-.14.68-.63,1.06-1.33,1.06-.99,0-1.46-.68-1.49-1.63,0-.93.61-1.61,1.46-1.61,1.1,0,1.43,1.03,1.4,1.78h-2.32c-.02.54.29,1.02.97,1.02.42,0,.71-.2.8-.61h.5ZM101.24,55.9c-.02-.49-.39-.88-.89-.88-.53,0-.85.4-.89.88h1.78ZM102.31,54.65h.48v.49h.01c.22-.38.56-.56,1.01-.56.82,0,1.07.47,1.07,1.13v2.04h-.51v-2.1c0-.38-.24-.62-.63-.62-.62,0-.92.41-.92.97v1.75h-.51v-3.1ZM106.35,54.65h.62v.45h-.62v1.92c0,.23.07.28.38.28h.23v.45h-.39c-.53,0-.74-.11-.74-.68v-1.97h-.53v-.45h.53v-.93h.51v.93ZM109.91,54.65h.62v.45h-.62v1.92c0,.23.07.28.38.28h.23v.45h-.39c-.53,0-.74-.11-.74-.68v-1.97h-.53v-.45h.53v-.93h.51v.93ZM112.43,54.58c.98,0,1.51.71,1.51,1.63s-.52,1.62-1.51,1.62-1.51-.71-1.51-1.62.52-1.63,1.51-1.63ZM112.43,57.37c.53,0,.97-.42.97-1.17s-.43-1.18-.97-1.18-.97.42-.97,1.18.43,1.17.97,1.17ZM118.31,55.65c-.08-.39-.35-.62-.77-.62-.74,0-.97.58-.97,1.21,0,.57.26,1.13.91,1.13.49,0,.79-.29.85-.76h.52c-.11.76-.59,1.21-1.37,1.21-.95,0-1.45-.66-1.45-1.58s.48-1.66,1.46-1.66c.7,0,1.27.33,1.34,1.07h-.53ZM120.77,54.58c.98,0,1.51.71,1.51,1.63s-.52,1.62-1.51,1.62-1.51-.71-1.51-1.62.52-1.63,1.51-1.63ZM120.77,57.37c.53,0,.97-.42.97-1.17s-.43-1.18-.97-1.18-.97.42-.97,1.18.43,1.17.97,1.17ZM122.87,54.65h.48v.49h.01c.22-.38.56-.56,1.01-.56.82,0,1.07.47,1.07,1.13v2.04h-.51v-2.1c0-.38-.24-.62-.63-.62-.62,0-.92.41-.92.97v1.75h-.51v-3.1ZM126.92,54.65h.62v.45h-.62v1.92c0,.23.07.28.38.28h.23v.45h-.39c-.53,0-.74-.11-.74-.68v-1.97h-.53v-.45h.53v-.93h.51v.93ZM128.64,54.09h-.51v-.62h.51v.62ZM128.13,54.65h.51v3.1h-.51v-3.1ZM129.43,54.65h.48v.49h.01c.22-.38.56-.56,1.01-.56.82,0,1.07.47,1.07,1.13v2.04h-.51v-2.1c0-.38-.24-.62-.63-.62-.62,0-.92.41-.92.97v1.75h-.51v-3.1ZM135.33,57.75h-.48v-.49h-.01c-.22.38-.56.56-1.01.56-.82,0-1.07-.47-1.07-1.13v-2.04h.51v2.1c0,.38.24.62.63.62.62,0,.92-.41.92-.97v-1.75h.51v3.1ZM138.75,56.77c-.14.68-.63,1.06-1.33,1.06-.99,0-1.46-.68-1.49-1.63,0-.93.61-1.61,1.46-1.61,1.1,0,1.43,1.03,1.4,1.78h-2.32c-.02.54.29,1.02.97,1.02.42,0,.71-.2.8-.61h.5ZM138.26,55.9c-.02-.49-.39-.88-.89-.88-.53,0-.85.4-.89.88h1.78ZM142.1,57.75h-.51v-.42h-.01c-.17.34-.56.49-.99.49-.95,0-1.43-.76-1.43-1.63s.47-1.61,1.42-1.61c.32,0,.77.12,1,.49h.01v-1.6h.51v4.28ZM140.66,57.37c.68,0,.95-.59.95-1.17,0-.61-.28-1.18-.98-1.18s-.93.59-.93,1.2.3,1.15.96,1.15ZM144.57,54.65h.51v.42h.01c.17-.34.56-.49.99-.49.95,0,1.43.76,1.43,1.63s-.47,1.61-1.42,1.61c-.32,0-.77-.12-1-.49h-.01v1.6h-.51v-4.29ZM146.01,55.03c-.68,0-.95.59-.95,1.17,0,.61.28,1.18.98,1.18s.93-.59.93-1.2-.3-1.15-.96-1.15ZM148.09,54.65h.48v.65h.01c.25-.5.59-.74,1.14-.73v.54c-.82,0-1.12.47-1.12,1.25v1.38h-.51v-3.1ZM151.33,54.58c.98,0,1.51.71,1.51,1.63s-.52,1.62-1.51,1.62-1.51-.71-1.51-1.62.52-1.63,1.51-1.63ZM151.33,57.37c.53,0,.97-.42.97-1.17s-.43-1.18-.97-1.18-.97.42-.97,1.18.43,1.17.97,1.17ZM156.21,57.75h-.51v-.42h-.01c-.17.34-.56.49-.99.49-.95,0-1.43-.76-1.43-1.63s.47-1.61,1.42-1.61c.32,0,.77.12,1,.49h.01v-1.6h.51v4.28ZM154.77,57.37c.68,0,.95-.59.95-1.17,0-.61-.28-1.18-.98-1.18s-.93.59-.93,1.2.3,1.15.96,1.15ZM159.56,57.75h-.48v-.49h-.01c-.22.38-.56.56-1.01.56-.82,0-1.07-.47-1.07-1.13v-2.04h.51v2.1c0,.38.24.62.63.62.62,0,.92-.41.92-.97v-1.75h.51v3.1ZM162.43,55.65c-.08-.39-.35-.62-.77-.62-.74,0-.97.58-.97,1.21,0,.57.26,1.13.91,1.13.49,0,.79-.29.85-.76h.52c-.11.76-.59,1.21-1.37,1.21-.95,0-1.45-.66-1.45-1.58s.48-1.66,1.46-1.66c.7,0,1.27.33,1.34,1.07h-.53ZM164.26,54.65h.62v.45h-.62v1.92c0,.23.07.28.38.28h.23v.45h-.39c-.53,0-.74-.11-.74-.68v-1.97h-.53v-.45h.53v-.93h.51v.93ZM167.65,54.09h-.51v-.62h.51v.62ZM167.14,54.65h.51v3.1h-.51v-3.1ZM168.44,54.65h.48v.46h.01c.23-.35.58-.53,1-.53.38,0,.73.15.85.53.21-.33.58-.53.97-.53.62,0,1.03.26,1.03.9v2.27h-.51v-2.03c0-.38-.1-.69-.6-.69s-.81.31-.81.79v1.93h-.51v-2.03c0-.4-.13-.69-.58-.69-.61,0-.83.56-.83.79v1.93h-.51v-3.1ZM173.58,54.65h.51v.42h.01c.17-.34.56-.49.99-.49.95,0,1.43.76,1.43,1.63s-.47,1.61-1.42,1.61c-.32,0-.77-.12-1-.49h-.01v1.6h-.51v-4.29ZM175.02,55.03c-.68,0-.95.59-.95,1.17,0,.61.28,1.18.98,1.18s.93-.59.93-1.2-.3-1.15-.96-1.15ZM177.1,54.65h.48v.65h.01c.25-.5.59-.74,1.14-.73v.54c-.82,0-1.12.47-1.12,1.25v1.38h-.51v-3.1ZM180.34,54.58c.98,0,1.51.71,1.51,1.63s-.52,1.62-1.51,1.62-1.51-.71-1.51-1.62.52-1.63,1.51-1.63ZM180.34,57.37c.53,0,.97-.42.97-1.17s-.43-1.18-.97-1.18-.97.42-.97,1.18.43,1.17.97,1.17ZM183.85,57.75h-.55l-1.15-3.1h.57l.87,2.58h.01l.85-2.58h.53l-1.13,3.1ZM188.1,56.77c-.14.68-.63,1.06-1.33,1.06-.99,0-1.46-.68-1.49-1.63,0-.93.61-1.61,1.46-1.61,1.1,0,1.43,1.03,1.4,1.78h-2.32c-.02.54.29,1.02.97,1.02.42,0,.71-.2.8-.61h.5ZM187.6,55.9c-.02-.49-.39-.88-.89-.88-.53,0-.85.4-.89.88h1.78ZM188.67,54.65h.48v.46h.01c.23-.35.58-.53,1-.53.38,0,.73.15.85.53.21-.33.58-.53.97-.53.62,0,1.03.26,1.03.9v2.27h-.51v-2.03c0-.38-.1-.69-.6-.69s-.81.31-.81.79v1.93h-.51v-2.03c0-.4-.13-.69-.58-.69-.61,0-.83.56-.83.79v1.93h-.51v-3.1ZM196.44,56.77c-.14.68-.63,1.06-1.33,1.06-.99,0-1.46-.68-1.49-1.63,0-.93.61-1.61,1.46-1.61,1.1,0,1.43,1.03,1.4,1.78h-2.32c-.02.54.29,1.02.97,1.02.42,0,.71-.2.8-.61h.5ZM195.94,55.9c-.02-.49-.39-.88-.89-.88-.53,0-.85.4-.89.88h1.78ZM197.01,54.65h.48v.49h.01c.22-.38.56-.56,1.01-.56.82,0,1.07.47,1.07,1.13v2.04h-.51v-2.1c0-.38-.24-.62-.63-.62-.62,0-.92.41-.92.97v1.75h-.51v-3.1ZM201.06,54.65h.62v.45h-.62v1.92c0,.23.07.28.38.28h.23v.45h-.39c-.53,0-.74-.11-.74-.68v-1.97h-.53v-.45h.53v-.93h.51v.93ZM202.35,57.09h.67v.61c0,.45-.2.81-.66.94v-.3c.27-.09.36-.39.35-.58h-.35v-.67ZM205.89,56.77c.02.46.41.6.83.6.32,0,.75-.07.75-.46s-.5-.46-1.01-.58c-.5-.11-1.01-.28-1.01-.88,0-.62.62-.88,1.16-.88.68,0,1.23.22,1.27.97h-.51c-.04-.4-.38-.52-.72-.52-.31,0-.66.08-.66.4,0,.37.54.43,1.01.54.51.11,1.01.28,1.01.88,0,.74-.69.98-1.32.98-.7,0-1.28-.28-1.31-1.05h.51ZM208.59,54.65h.51v.42h.01c.17-.34.56-.49.99-.49.95,0,1.43.76,1.43,1.63s-.47,1.61-1.42,1.61c-.32,0-.77-.12-1-.49h-.01v1.6h-.51v-4.29ZM210.03,55.03c-.68,0-.95.59-.95,1.17,0,.61.28,1.18.98,1.18s.93-.59.93-1.2-.3-1.15-.96-1.15ZM214.78,56.77c-.14.68-.63,1.06-1.33,1.06-.99,0-1.46-.68-1.49-1.63,0-.93.61-1.61,1.46-1.61,1.1,0,1.43,1.03,1.4,1.78h-2.32c-.02.54.29,1.02.97,1.02.42,0,.71-.2.8-.61h.5ZM214.29,55.9c-.02-.49-.39-.88-.89-.88-.53,0-.85.4-.89.88h1.78ZM217.46,55.65c-.08-.39-.35-.62-.77-.62-.74,0-.97.58-.97,1.21,0,.57.26,1.13.91,1.13.49,0,.79-.29.85-.76h.52c-.11.76-.59,1.21-1.37,1.21-.95,0-1.45-.66-1.45-1.58s.48-1.66,1.46-1.66c.7,0,1.27.33,1.34,1.07h-.53ZM219.12,54.09h-.51v-.62h.51v.62ZM218.61,54.65h.51v3.1h-.51v-3.1ZM220.12,55.1h-.52v-.45h.52v-.46c0-.5.3-.77.86-.77.1,0,.23.02.33.05v.44c-.09-.03-.2-.04-.29-.04-.25,0-.39.08-.39.35v.43h.6v.45h-.6v2.65h-.51v-2.65ZM221.71,54.09v-.62h.51v.62h-.51ZM221.71,57.75v-3.1h.51v3.1h-.51ZM225.12,55.65c-.08-.39-.35-.62-.77-.62-.74,0-.97.58-.97,1.21,0,.57.26,1.13.91,1.13.49,0,.79-.29.85-.76h.52c-.11.76-.59,1.21-1.37,1.21-.95,0-1.45-.66-1.45-1.58s.48-1.66,1.46-1.66c.7,0,1.27.33,1.34,1.07h-.53ZM228.99,57.74c-.09.05-.2.08-.37.08-.26,0-.43-.14-.43-.48-.28.33-.66.48-1.09.48-.56,0-1.03-.25-1.03-.87,0-.7.52-.85,1.05-.95.56-.11,1.04-.07,1.04-.46,0-.44-.37-.52-.69-.52-.43,0-.75.13-.77.59h-.51c.03-.77.62-1.04,1.31-1.04.56,0,1.16.13,1.16.85v1.6c0,.24,0,.35.16.35.04,0,.09,0,.16-.03v.4ZM228.16,56.15c-.2.14-.58.15-.92.21-.34.06-.62.18-.62.56,0,.34.29.46.6.46.67,0,.95-.42.95-.7v-.52ZM230.17,54.65h.62v.45h-.62v1.92c0,.23.07.28.38.28h.23v.45h-.39c-.53,0-.74-.11-.74-.68v-1.97h-.53v-.45h.53v-.93h.51v.93ZM231.89,54.09h-.51v-.62h.51v.62ZM231.38,54.65h.51v3.1h-.51v-3.1ZM234.02,54.58c.98,0,1.51.71,1.51,1.63s-.52,1.62-1.51,1.62-1.51-.71-1.51-1.62.52-1.63,1.51-1.63ZM234.02,57.37c.53,0,.97-.42.97-1.17s-.43-1.18-.97-1.18-.97.42-.97,1.18.43,1.17.97,1.17ZM236.13,54.65h.48v.49h.01c.22-.38.56-.56,1.01-.56.82,0,1.07.47,1.07,1.13v2.04h-.51v-2.1c0-.38-.24-.62-.63-.62-.62,0-.92.41-.92.97v1.75h-.51v-3.1ZM239.78,56.77c.02.46.41.6.83.6.32,0,.75-.07.75-.46s-.5-.46-1.01-.58c-.5-.11-1.01-.28-1.01-.88,0-.62.62-.88,1.16-.88.68,0,1.23.22,1.27.97h-.51c-.04-.4-.38-.52-.72-.52-.31,0-.66.08-.66.4,0,.37.54.43,1.01.54.51.11,1.01.28,1.01.88,0,.74-.69.98-1.32.98-.7,0-1.28-.28-1.31-1.05h.51ZM246.88,57.74c-.09.05-.2.08-.37.08-.26,0-.43-.14-.43-.48-.28.33-.66.48-1.09.48-.56,0-1.03-.25-1.03-.87,0-.7.52-.85,1.05-.95.56-.11,1.04-.07,1.04-.46,0-.44-.37-.52-.69-.52-.43,0-.75.13-.77.59h-.51c.03-.77.62-1.04,1.31-1.04.56,0,1.16.13,1.16.85v1.6c0,.24,0,.35.16.35.04,0,.09,0,.16-.03v.4ZM246.05,56.15c-.2.14-.58.15-.92.21-.34.06-.62.18-.62.56,0,.34.29.46.6.46.67,0,.95-.42.95-.7v-.52ZM247.34,54.65h.48v.65h.01c.25-.5.59-.74,1.14-.73v.54c-.82,0-1.12.47-1.12,1.25v1.38h-.51v-3.1ZM251.88,56.77c-.14.68-.63,1.06-1.33,1.06-.99,0-1.46-.68-1.49-1.63,0-.93.61-1.61,1.46-1.61,1.1,0,1.43,1.03,1.4,1.78h-2.32c-.02.54.29,1.02.97,1.02.42,0,.71-.2.8-.61h.5ZM251.39,55.9c-.02-.49-.39-.88-.89-.88-.53,0-.85.4-.89.88h1.78ZM254.44,56.77c.02.46.41.6.83.6.32,0,.75-.07.75-.46s-.5-.46-1.01-.58c-.5-.11-1.01-.28-1.01-.88,0-.62.62-.88,1.16-.88.68,0,1.23.22,1.27.97h-.51c-.04-.4-.38-.52-.72-.52-.31,0-.66.08-.66.4,0,.37.54.43,1.01.54.51.11,1.01.28,1.01.88,0,.74-.69.98-1.32.98-.7,0-1.28-.28-1.31-1.05h.51ZM259.7,57.75h-.48v-.49h-.01c-.22.38-.56.56-1.01.56-.82,0-1.07-.47-1.07-1.13v-2.04h.51v2.1c0,.38.24.62.63.62.62,0,.92-.41.92-.97v-1.75h.51v3.1ZM260.48,53.47h.51v1.6h.01c.17-.34.56-.49.99-.49.95,0,1.43.76,1.43,1.63s-.47,1.61-1.42,1.61c-.32,0-.77-.12-1-.49h-.01v.41h-.51v-4.28ZM261.92,55.03c-.68,0-.95.59-.95,1.17,0,.61.28,1.18.98,1.18s.93-.59.93-1.2-.3-1.15-.96-1.15ZM264.56,58.15c0,.55-.29.79-.74.79-.08,0-.17,0-.26-.02v-.44c.07.01.14.01.21.01.22,0,.29-.11.29-.43v-3.41h.51v3.5ZM264.56,54.09h-.51v-.62h.51v.62ZM268,56.77c-.14.68-.63,1.06-1.33,1.06-.99,0-1.46-.68-1.49-1.63,0-.93.61-1.61,1.46-1.61,1.1,0,1.43,1.03,1.4,1.78h-2.32c-.02.54.29,1.02.97,1.02.42,0,.71-.2.8-.61h.5ZM267.51,55.9c-.02-.49-.39-.88-.89-.88-.53,0-.85.4-.89.88h1.78ZM270.68,55.65c-.08-.39-.35-.62-.77-.62-.74,0-.97.58-.97,1.21,0,.57.26,1.13.91,1.13.49,0,.79-.29.85-.76h.52c-.11.76-.59,1.21-1.37,1.21-.95,0-1.45-.66-1.45-1.58s.48-1.66,1.46-1.66c.7,0,1.27.33,1.34,1.07h-.53ZM272.51,54.65h.62v.45h-.62v1.92c0,.23.07.28.38.28h.23v.45h-.39c-.53,0-.74-.11-.74-.68v-1.97h-.53v-.45h.53v-.93h.51v.93ZM276.06,54.65h.62v.45h-.62v1.92c0,.23.07.28.38.28h.23v.45h-.39c-.53,0-.74-.11-.74-.68v-1.97h-.53v-.45h.53v-.93h.51v.93ZM278.58,54.58c.98,0,1.51.71,1.51,1.63s-.52,1.62-1.51,1.62-1.51-.71-1.51-1.62.52-1.63,1.51-1.63ZM278.58,57.37c.53,0,.97-.42.97-1.17s-.43-1.18-.97-1.18-.97.42-.97,1.18.43,1.17.97,1.17ZM284.46,55.65c-.08-.39-.35-.62-.77-.62-.74,0-.97.58-.97,1.21,0,.57.26,1.13.91,1.13.49,0,.79-.29.85-.76h.52c-.11.76-.59,1.21-1.37,1.21-.95,0-1.45-.66-1.45-1.58s.48-1.66,1.46-1.66c.7,0,1.27.33,1.34,1.07h-.53ZM285.58,53.47h.51v1.64h.01c.17-.37.61-.53.98-.53.82,0,1.07.47,1.07,1.13v2.04h-.51v-2.1c0-.38-.24-.62-.63-.62-.62,0-.92.41-.92.97v1.75h-.51v-4.28ZM291.66,57.74c-.09.05-.2.08-.37.08-.26,0-.43-.14-.43-.48-.28.33-.66.48-1.09.48-.56,0-1.03-.25-1.03-.87,0-.7.52-.85,1.05-.95.56-.11,1.04-.07,1.04-.46,0-.44-.37-.52-.69-.52-.43,0-.75.13-.77.59h-.51c.03-.77.62-1.04,1.31-1.04.56,0,1.16.13,1.16.85v1.6c0,.24,0,.35.16.35.04,0,.09,0,.16-.03v.4ZM290.84,56.15c-.2.14-.58.15-.92.21-.34.06-.62.18-.62.56,0,.34.29.46.6.46.67,0,.95-.42.95-.7v-.52ZM292.14,54.65h.48v.49h.01c.22-.38.56-.56,1.01-.56.82,0,1.07.47,1.07,1.13v2.04h-.51v-2.1c0-.38-.24-.62-.63-.62-.62,0-.92.41-.92.97v1.75h-.51v-3.1ZM298.15,57.49c0,1.01-.46,1.52-1.44,1.52-.58,0-1.25-.23-1.28-.91h.51c.02.37.47.5.8.5.67,0,.93-.48.93-1.18v-.2h-.01c-.17.38-.58.56-.97.56-.92,0-1.39-.73-1.39-1.57,0-.73.36-1.64,1.43-1.64.39,0,.74.17.92.52h0v-.44h.48v2.84ZM297.65,56.14c0-.55-.24-1.11-.88-1.11s-.92.53-.92,1.13c0,.56.2,1.18.88,1.18s.92-.62.92-1.2ZM301.56,56.77c-.14.68-.63,1.06-1.33,1.06-.99,0-1.46-.68-1.49-1.63,0-.93.61-1.61,1.46-1.61,1.1,0,1.43,1.03,1.4,1.78h-2.32c-.02.54.29,1.02.97,1.02.42,0,.71-.2.8-.61h.5ZM301.07,55.9c-.02-.49-.39-.88-.89-.88-.53,0-.85.4-.89.88h1.78ZM306.88,57.75h-.54l-.63-2.46h-.01l-.62,2.46h-.55l-1-3.1h.56l.7,2.54h.01l.62-2.54h.56l.65,2.54h.01l.7-2.54h.53l-.99,3.1ZM308.9,54.09h-.51v-.62h.51v.62ZM308.39,54.65h.51v3.1h-.51v-3.1ZM310.4,54.65h.62v.45h-.62v1.92c0,.23.07.28.38.28h.23v.45h-.39c-.53,0-.74-.11-.74-.68v-1.97h-.53v-.45h.53v-.93h.51v.93ZM311.58,53.47h.51v1.64h.01c.17-.37.61-.53.98-.53.82,0,1.07.47,1.07,1.13v2.04h-.51v-2.1c0-.38-.24-.62-.63-.62-.62,0-.92.41-.92.97v1.75h-.51v-4.28ZM316.25,54.58c.98,0,1.51.71,1.51,1.63s-.52,1.62-1.51,1.62-1.51-.71-1.51-1.62.52-1.63,1.51-1.63ZM316.25,57.37c.53,0,.97-.42.97-1.17s-.43-1.18-.97-1.18-.97.42-.97,1.18.43,1.17.97,1.17ZM320.93,57.75h-.48v-.49h-.01c-.22.38-.56.56-1.01.56-.82,0-1.07-.47-1.07-1.13v-2.04h.51v2.1c0,.38.24.62.63.62.62,0,.92-.41.92-.97v-1.75h.51v3.1ZM322.4,54.65h.62v.45h-.62v1.92c0,.23.07.28.38.28h.23v.45h-.39c-.53,0-.74-.11-.74-.68v-1.97h-.53v-.45h.53v-.93h.51v.93ZM325.25,54.65h.48v.49h.01c.22-.38.56-.56,1.01-.56.82,0,1.07.47,1.07,1.13v2.04h-.51v-2.1c0-.38-.24-.62-.63-.62-.62,0-.92.41-.92.97v1.75h-.51v-3.1ZM329.93,54.58c.98,0,1.51.71,1.51,1.63s-.52,1.62-1.51,1.62-1.51-.71-1.51-1.62.52-1.63,1.51-1.63ZM329.93,57.37c.53,0,.97-.42.97-1.17s-.43-1.18-.97-1.18-.97.42-.97,1.18.43,1.17.97,1.17ZM332.74,54.65h.62v.45h-.62v1.92c0,.23.07.28.38.28h.23v.45h-.39c-.53,0-.74-.11-.74-.68v-1.97h-.53v-.45h.53v-.93h.51v.93ZM334.46,54.09h-.51v-.62h.51v.62ZM333.95,54.65h.51v3.1h-.51v-3.1ZM337.36,55.65c-.08-.39-.35-.62-.77-.62-.74,0-.97.58-.97,1.21,0,.57.26,1.13.91,1.13.49,0,.79-.29.85-.76h.52c-.11.76-.59,1.21-1.37,1.21-.95,0-1.45-.66-1.45-1.58s.48-1.66,1.46-1.66c.7,0,1.27.33,1.34,1.07h-.53ZM341.12,56.77c-.14.68-.63,1.06-1.33,1.06-.99,0-1.46-.68-1.49-1.63,0-.93.61-1.61,1.46-1.61,1.1,0,1.43,1.03,1.4,1.78h-2.32c-.02.54.29,1.02.97,1.02.42,0,.71-.2.8-.61h.5ZM340.63,55.9c-.02-.49-.39-.88-.89-.88-.53,0-.85.4-.89.88h1.78ZM341.81,57.09h.67v.67h-.67v-.67Z"/>
</svg>