<?xml version="1.0" encoding="UTF-8"?>
<svg id="Layer_1" data-name="Layer 1" xmlns="http://www.w3.org/2000/svg" xmlns:xlink="http://www.w3.org/1999/xlink" viewBox="0 0 595.28 100">
  <defs>
    <style>
      .cls-1 {
        letter-spacing: -.02em;
      }

      .cls-2, .cls-3 {
        fill: #231f20;
      }

      .cls-3 {
        font-family: HelveticaNeueLTStd-Bd, 'Helvetica Neue LT Std';
        font-size: 8px;
      }

      .cls-4, .cls-5 {
        fill: none;
      }

      .cls-5 {
        stroke: #231f20;
        stroke-width: .5px;
      }

      .cls-6 {
        clip-path: url(#clippath-1);
      }

      .cls-7 {
        clip-path: url(#clippath-3);
      }

      .cls-8 {
        letter-spacing: 0em;
      }

      .cls-9 {
        letter-spacing: 0em;
      }

      .cls-10 {
        clip-path: url(#clippath-2);
      }

      .cls-11 {
        clip-path: url(#clippath);
      }

      .cls-12 {
        letter-spacing: -.02em;
      }
    </style>
    <clipPath id="clippath">
      <rect class="cls-4" x="45.14" y="14.82" width="505" height="70.36"/>
    </clipPath>
    <clipPath id="clippath-1">
      <rect class="cls-4" x="45.14" y="14.82" width="505" height="70.36"/>
    </clipPath>
    <clipPath id="clippath-2">
      <rect class="cls-4" x="45.14" y="14.82" width="505" height="70.36"/>
    </clipPath>
    <clipPath id="clippath-3">
      <rect class="cls-4" x="45.14" y="14.82" width="505" height="70.36"/>
    </clipPath>
  </defs>
  <g class="cls-11">
    <line class="cls-5" x1="45.14" y1="84.93" x2="549.14" y2="84.93"/>
    <line class="cls-5" x1="45.14" y1="60.53" x2="549.14" y2="60.53"/>
  </g>
  <line class="cls-5" x1="302.54" y1="29.77" x2="189.02" y2="29.77"/>
  <g class="cls-6">
    <line class="cls-5" x1="550.14" y1="29.77" x2="414.44" y2="29.77"/>
  </g>
  <line class="cls-5" x1="387.14" y1="29.77" x2="335.39" y2="29.77"/>
  <line class="cls-5" x1="302.54" y1="49.77" x2="191.76" y2="49.77"/>
  <g class="cls-10">
    <line class="cls-5" x1="550.14" y1="49.77" x2="445.63" y2="49.77"/>
  </g>
  <line class="cls-5" x1="387.14" y1="49.77" x2="323.84" y2="49.77"/>
  <text class="cls-3" transform="translate(161.35 28.53)"><tspan x="0" y="0">Model: </tspan></text>
  <text class="cls-3" transform="translate(161.35 48.53)"><tspan x="0" y="0">P</tspan><tspan class="cls-12" x="5.34" y="0">r</tspan><tspan class="cls-9" x="8.31" y="0">oject: </tspan></text>
  <text class="cls-3" transform="translate(307.35 28.53)"><tspan x="0" y="0">Item #: </tspan></text>
  <text class="cls-3" transform="translate(307.35 48.53)"><tspan x="0" y="0">Qty: </tspan></text>
  <text class="cls-3" transform="translate(392.4 28.53)"><tspan x="0" y="0">Date: </tspan></text>
  <text class="cls-3" transform="translate(392.4 48.53)"><tspan x="0" y="0">App</tspan><tspan class="cls-1" x="15.26" y="0">r</tspan><tspan class="cls-8" x="18.23" y="0">oved By: </tspan></text>
  <g class="cls-7">
    <path class="cls-2" d="M145.92,34.81c0,.15-.15.21-.33.21h-.16v-.41s.1-.02.18-.02c.21,0,.31.09.31.22M145.98,35.13v-.02c.18-.05.3-.17.3-.33,0-.14-.06-.25-.14-.31-.11-.06-.23-.1-.5-.1-.24,0-.42.02-.55.04v1.43h.33v-.58h.16c.18,0,.27.07.3.23.04.17.07.3.11.35h.36c-.04-.05-.06-.14-.11-.36-.04-.19-.12-.3-.26-.35M146.76,35.09c0,.63-.47,1.13-1.1,1.13s-1.12-.51-1.12-1.14.47-1.14,1.12-1.14,1.11.51,1.11,1.15M147.12,35.08c0-.79-.64-1.43-1.48-1.43s-1.49.64-1.49,1.43.66,1.45,1.49,1.45,1.48-.64,1.48-1.45"/>
    <path class="cls-2" d="M91.14,32.91l1.78-4.61s-.03-.07-.06-.04l-1.87,2.16q-.52.57-.53-.64c0-.79,0-1.38,0-1.63,0-.04-.06-.06-.08-.03l-1.26,1.66q-.62.76-1.08-.19c-.37-.77-1.18-3.46-1.39-4.18-.01-.05-.09-.05-.1,0-.21.72-1.02,3.41-1.39,4.18-.46.95-1.08.19-1.08.19l-1.25-1.66s-.08-.02-.08.03c0,.25,0,.84,0,1.63,0,1.21-.53.64-.53.64l-1.87-2.15s-.08,0-.06.04l1.78,4.61c.03.07.11.1.17.06.37-.23,1.67-.89,4.37-.93,2.7.04,4,.7,4.37.93.06.04.14.01.17-.06"/>
    <path class="cls-2" d="M87.14,24.45c0-.29-.24-.53-.54-.53s-.53.24-.53.53.24.53.53.53.54-.24.54-.53"/>
    <path class="cls-2" d="M83.03,27.26c0-.29-.24-.53-.54-.53s-.53.24-.53.53.24.53.53.53.54-.24.54-.53"/>
    <path class="cls-2" d="M80.39,27.53c0-.29-.24-.53-.54-.53s-.53.24-.53.53.24.53.53.53.54-.24.54-.53"/>
    <path class="cls-2" d="M91.25,27.26c0-.29-.24-.53-.54-.53s-.53.24-.53.53.24.53.53.53.54-.24.54-.53"/>
    <path class="cls-2" d="M93.89,27.53c0-.29-.24-.53-.54-.53s-.53.24-.53.53.24.53.53.53.54-.24.54-.53"/>
    <path class="cls-2" d="M91.51,41.69c0,2.24-.44,4.01-1.32,5.31-.88,1.3-2.07,1.96-3.58,1.96s-2.69-.65-3.57-1.96c-.88-1.3-1.32-3.08-1.32-5.31s.44-4.01,1.32-5.32c.88-1.31,2.07-1.96,3.57-1.96s2.7.65,3.58,1.96c.88,1.31,1.32,3.08,1.32,5.32M92.16,47.66c1.43-1.55,2.15-3.54,2.15-5.97s-.72-4.43-2.15-5.98c-1.44-1.55-3.28-2.32-5.55-2.32s-4.1.77-5.54,2.32c-1.44,1.55-2.16,3.54-2.16,5.98s.72,4.42,2.16,5.97c1.44,1.55,3.28,2.32,5.54,2.32s4.11-.77,5.55-2.32"/>
    <path class="cls-2" d="M143.88,47.6l.63-2.04h-.61c-.55,1.12-1.19,1.92-1.9,2.38-.72.46-1.67.69-2.86.69h-2.47c-.58,0-.95-.08-1.11-.24-.16-.16-.24-.53-.24-1.1v-5.33h3.56c.94,0,1.6.17,1.99.49.39.33.58.9.58,1.71h.58v-5.42h-.58c0,.81-.19,1.38-.58,1.71-.39.33-1.05.49-1.99.49h-3.56v-4.85c0-.57.09-.93.26-1.11.17-.17.54-.26,1.11-.26h3.21c.94,0,1.63.19,2.06.56.43.38.72,1.02.85,1.94h.58l-.08-1.77-.07-1.75h-17.93v.57c.92.03,1.5.24,1.74.64.25.4.37,1.32.37,2.77v7.34l-8.89-11.33h-8.64v.57c.76.05,1.25.23,1.47.56.22.32.21.84-.04,1.55l-2.96,8.95-3.55-9.7c-.18-.49-.17-.84.05-1.05.22-.21.67-.32,1.36-.32v-.57h-6.1v.57c.69.04,1.16.16,1.41.36.26.2.52.65.78,1.35l.92,2.51-2.47,6.85-3.46-9.71c-.18-.49-.16-.84.06-1.05.22-.21.67-.32,1.36-.32v-.57h-5.86v.57c.58.04.98.16,1.2.36.22.2.46.65.72,1.35l5.07,14.04h.44l3.58-9.81,3.61,9.81h.44l4.57-13.61c.28-.83.54-1.37.77-1.62.23-.25.63-.42,1.2-.51.59.04,1.05.16,1.36.36.24.15.54.45.9.88v10.15c0,1.45-.12,2.38-.37,2.78-.25.4-.83.61-1.74.64v.57h5.4v-.57c-.92-.03-1.5-.24-1.74-.64-.25-.4-.37-1.32-.37-2.77v-8.71l10.25,13.07h.44v-12.33c0-1.45.12-2.38.37-2.77.25-.4.83-.61,1.74-.64.92.05,1.5.25,1.74.6.25.35.37,1.14.37,2.38v8.84c0,1.24-.12,2.03-.37,2.38-.25.35-.83.55-1.74.6v.57h12.53l.65-2.05Z"/>
    <path class="cls-2" d="M71.38,41.42h-1.56v-5.33c0-.57.09-.93.26-1.11.17-.17.54-.26,1.11-.26h.18c1.13,0,2.03.28,2.68.85.66.57.99,1.33.99,2.3,0,1.16-.31,2.04-.93,2.64-.62.6-1.53.9-2.74.9M76.46,49.66h4.02v-.57c-.58-.04-1.02-.16-1.32-.35-.3-.2-.73-.65-1.29-1.35l-4.02-5.21c.89-.21,1.65-.52,2.28-.93,1.15-.76,1.72-1.83,1.72-3.19s-.55-2.5-1.65-3.24c-1.1-.74-2.71-1.11-4.82-1.11h-6.17v.57c.92.06,1.5.27,1.74.61s.37,1.14.37,2.37v8.84c0,1.23-.12,2.02-.37,2.36-.06.08-.14.16-.24.23-.48.31-1.51.25-1.51.25-.72-.05-1.28-.19-1.7-.44-.42-.25-1.04-.81-1.86-1.68l-7.72-8.37,1.51-1.41c1.46-1.36,2.76-2.64,3.89-3.85.93-.98,1.66-1.62,2.2-1.93.54-.31,1.35-.55,2.43-.72v-.71h-7.57v.71c1.2.08,1.86.34,1.97.78.11.45-.31,1.16-1.26,2.14-.82.85-1.73,1.73-2.71,2.66-1.23,1.16-2.4,2.2-3.52,3.13v-6.07c0-1.08.15-1.78.46-2.09.31-.31,1.03-.5,2.17-.56v-.71h-8.36v.71c1.14.07,1.86.32,2.17.75s.46,1.42.46,2.96v10.99c0,1.54-.15,2.52-.46,2.95-.31.44-1.03.69-2.17.76v.71h8.36v-.71c-1.14-.07-1.86-.25-2.17-.56-.31-.31-.46-1-.46-2.09v-5.23l.74-.63,5.79,6.39c.7.76.97,1.3.82,1.63-.15.33-.76.49-1.82.49v.71h15.53v-.57c-.92-.05-1.5-.2-1.74-.45-.25-.25-.37-.81-.37-1.68v-4.56h1.12l5.52,7.27Z"/>
  </g>
</svg>